<svg width="173" height="48" viewBox="0 0 173 48" fill="none" xmlns="http://www.w3.org/2000/svg">
<path d="M1.752 32V15.008H5.88V32H1.752ZM17.8166 32H13.7126L7.28062 15.008H11.8886L15.8246 27.056H15.9206L19.8326 15.008H24.3686L17.8166 32ZM36.5454 32L35.2254 28.664H28.6494L27.4014 32H22.9374L30.0654 15.008H34.0494L41.1054 32H36.5454ZM31.9854 19.544L29.8254 25.376H34.0974L31.9854 19.544ZM53.3098 32L46.4698 20.888H46.3978L46.4938 32H42.5098V15.008H47.1898L54.0058 26.096H54.0778L53.9818 15.008H57.9658V32H53.3098Z" fill="black"/>
<path d="M76.848 30.968C76.016 31.4 75.04 31.752 73.92 32.024C72.816 32.296 71.608 32.432 70.296 32.432C68.936 32.432 67.68 32.216 66.528 31.784C65.392 31.352 64.408 30.744 63.576 29.96C62.76 29.176 62.12 28.24 61.656 27.152C61.192 26.048 60.96 24.824 60.96 23.48C60.96 22.12 61.192 20.888 61.656 19.784C62.136 18.68 62.792 17.744 63.624 16.976C64.456 16.192 65.432 15.592 66.552 15.176C67.672 14.76 68.88 14.552 70.176 14.552C71.52 14.552 72.768 14.76 73.92 15.176C75.072 15.576 76.008 16.12 76.728 16.808L74.136 19.76C73.736 19.296 73.208 18.92 72.552 18.632C71.896 18.328 71.152 18.176 70.32 18.176C69.6 18.176 68.936 18.312 68.328 18.584C67.72 18.84 67.192 19.208 66.744 19.688C66.296 20.152 65.944 20.712 65.688 21.368C65.448 22.008 65.328 22.712 65.328 23.48C65.328 24.264 65.44 24.984 65.664 25.64C65.888 26.296 66.216 26.864 66.648 27.344C67.096 27.808 67.64 28.176 68.28 28.448C68.936 28.704 69.68 28.832 70.512 28.832C70.992 28.832 71.448 28.8 71.88 28.736C72.312 28.656 72.712 28.536 73.08 28.376V25.28H69.84V21.968H76.848V30.968ZM89.2933 32L85.6213 25.256H84.2293V32H80.1973V15.008H86.6773C87.4933 15.008 88.2853 15.096 89.0533 15.272C89.8373 15.432 90.5333 15.712 91.1413 16.112C91.7653 16.512 92.2613 17.04 92.6293 17.696C92.9973 18.352 93.1813 19.168 93.1813 20.144C93.1813 21.296 92.8693 22.264 92.2453 23.048C91.6213 23.832 90.7573 24.392 89.6533 24.728L94.0933 32H89.2933ZM89.1253 20.216C89.1253 19.816 89.0373 19.496 88.8613 19.256C88.7013 19 88.4853 18.808 88.2133 18.68C87.9573 18.536 87.6613 18.44 87.3253 18.392C87.0053 18.344 86.6933 18.32 86.3893 18.32H84.2053V22.28H86.1493C86.4853 22.28 86.8293 22.256 87.1813 22.208C87.5333 22.144 87.8533 22.04 88.1413 21.896C88.4293 21.752 88.6613 21.544 88.8373 21.272C89.0293 21 89.1253 20.648 89.1253 20.216ZM96.1114 32V15.008H100.239V32H96.1114ZM103.752 32V15.008H115.176V18.488H107.712V21.68H114.768V24.968H107.712V28.496H115.608V32H103.752ZM127.306 19.424C126.954 18.976 126.49 18.624 125.914 18.368C125.354 18.096 124.81 17.96 124.282 17.96C124.01 17.96 123.73 17.984 123.442 18.032C123.17 18.08 122.922 18.176 122.698 18.32C122.474 18.448 122.282 18.624 122.122 18.848C121.978 19.056 121.906 19.328 121.906 19.664C121.906 19.952 121.962 20.192 122.074 20.384C122.202 20.576 122.378 20.744 122.602 20.888C122.842 21.032 123.122 21.168 123.442 21.296C123.762 21.408 124.122 21.528 124.522 21.656C125.098 21.848 125.698 22.064 126.322 22.304C126.946 22.528 127.514 22.832 128.026 23.216C128.538 23.6 128.962 24.08 129.298 24.656C129.634 25.216 129.802 25.92 129.802 26.768C129.802 27.744 129.618 28.592 129.25 29.312C128.898 30.016 128.418 30.6 127.81 31.064C127.202 31.528 126.506 31.872 125.722 32.096C124.938 32.32 124.13 32.432 123.298 32.432C122.082 32.432 120.906 32.224 119.77 31.808C118.634 31.376 117.69 30.768 116.938 29.984L119.626 27.248C120.042 27.76 120.586 28.192 121.258 28.544C121.946 28.88 122.626 29.048 123.298 29.048C123.602 29.048 123.898 29.016 124.186 28.952C124.474 28.888 124.722 28.784 124.93 28.64C125.154 28.496 125.33 28.304 125.458 28.064C125.586 27.824 125.65 27.536 125.65 27.2C125.65 26.88 125.57 26.608 125.41 26.384C125.25 26.16 125.018 25.96 124.714 25.784C124.426 25.592 124.058 25.424 123.61 25.28C123.178 25.12 122.682 24.952 122.122 24.776C121.578 24.6 121.042 24.392 120.514 24.152C120.002 23.912 119.538 23.608 119.122 23.24C118.722 22.856 118.394 22.4 118.138 21.872C117.898 21.328 117.778 20.672 117.778 19.904C117.778 18.96 117.97 18.152 118.354 17.48C118.738 16.808 119.242 16.256 119.866 15.824C120.49 15.392 121.194 15.08 121.978 14.888C122.762 14.68 123.554 14.576 124.354 14.576C125.314 14.576 126.29 14.752 127.282 15.104C128.29 15.456 129.17 15.976 129.922 16.664L127.306 19.424ZM141.486 19.424C141.134 18.976 140.67 18.624 140.094 18.368C139.534 18.096 138.99 17.96 138.462 17.96C138.19 17.96 137.91 17.984 137.622 18.032C137.35 18.08 137.102 18.176 136.878 18.32C136.654 18.448 136.462 18.624 136.302 18.848C136.158 19.056 136.086 19.328 136.086 19.664C136.086 19.952 136.142 20.192 136.254 20.384C136.382 20.576 136.558 20.744 136.782 20.888C137.022 21.032 137.302 21.168 137.622 21.296C137.942 21.408 138.302 21.528 138.702 21.656C139.278 21.848 139.878 22.064 140.502 22.304C141.126 22.528 141.694 22.832 142.206 23.216C142.718 23.6 143.142 24.08 143.478 24.656C143.814 25.216 143.982 25.92 143.982 26.768C143.982 27.744 143.798 28.592 143.43 29.312C143.078 30.016 142.598 30.6 141.99 31.064C141.382 31.528 140.686 31.872 139.902 32.096C139.118 32.32 138.31 32.432 137.478 32.432C136.262 32.432 135.086 32.224 133.95 31.808C132.814 31.376 131.87 30.768 131.118 29.984L133.806 27.248C134.222 27.76 134.766 28.192 135.438 28.544C136.126 28.88 136.806 29.048 137.478 29.048C137.782 29.048 138.078 29.016 138.366 28.952C138.654 28.888 138.902 28.784 139.11 28.64C139.334 28.496 139.51 28.304 139.638 28.064C139.766 27.824 139.83 27.536 139.83 27.2C139.83 26.88 139.75 26.608 139.59 26.384C139.43 26.16 139.198 25.96 138.894 25.784C138.606 25.592 138.238 25.424 137.79 25.28C137.358 25.12 136.862 24.952 136.302 24.776C135.758 24.6 135.222 24.392 134.694 24.152C134.182 23.912 133.718 23.608 133.302 23.24C132.902 22.856 132.574 22.4 132.318 21.872C132.078 21.328 131.958 20.672 131.958 19.904C131.958 18.96 132.15 18.152 132.534 17.48C132.918 16.808 133.422 16.256 134.046 15.824C134.67 15.392 135.374 15.08 136.158 14.888C136.942 14.68 137.734 14.576 138.534 14.576C139.494 14.576 140.47 14.752 141.462 15.104C142.47 15.456 143.35 15.976 144.102 16.664L141.486 19.424ZM146.69 32V15.008H158.114V18.488H150.65V21.68H157.706V24.968H150.65V28.496H158.546V32H146.69ZM161.268 32V15.008H165.396V28.424H171.972V32H161.268Z" fill="black" fill-opacity="0.12"/>
</svg>
