<svg width="180" height="180" viewBox="0 0 180 180" fill="none" xmlns="http://www.w3.org/2000/svg">
<path d="M127.737 72.5859H159.164V144.147H127.737V72.5859ZM127.192 51.9067C127.192 49.7299 127.601 47.6892 128.417 45.7846C129.324 43.7892 130.503 42.0659 131.954 40.6148C133.496 39.1636 135.265 38.0299 137.26 37.2136C139.255 36.3066 141.387 35.8531 143.654 35.8531C145.831 35.8531 147.872 36.3066 149.776 37.2136C151.681 38.0299 153.359 39.1636 154.81 40.6148C156.352 42.0659 157.531 43.7892 158.347 45.7846C159.254 47.6892 159.708 49.7299 159.708 51.9067C159.708 54.1742 159.254 56.3056 158.347 58.3009C157.531 60.2056 156.352 61.8835 154.81 63.3347C153.359 64.6952 151.681 65.7835 149.776 66.5998C147.872 67.4161 145.831 67.8243 143.654 67.8243C141.387 67.8243 139.255 67.4161 137.26 66.5998C135.265 65.7835 133.496 64.6952 131.954 63.3347C130.503 61.8835 129.324 60.2056 128.417 58.3009C127.601 56.3056 127.192 54.1742 127.192 51.9067Z" fill="black"/>
<path d="M79.0647 107.55H52.6714V144.147H20.2921V47.8251H52.5354V80.4765H78.9286V47.8251H111.444V144.147H79.0647V107.55Z" fill="black"/>
</svg>
